# Blender 5.0.1
# www.blender.org
mtllib HeadStone_Grand.mtl
o Headstone_Grand
v -0.090000 0.780000 0.390000
v -0.090000 0.780000 -0.390000
v 0.090000 0.780000 0.390000
v 0.090000 0.780000 -0.390000
v -0.090000 -0.288000 0.390000
v -0.090000 -0.288000 -0.390000
v 0.090000 -0.288000 -0.390000
v 0.090000 -0.288000 0.390000
v -0.176779 -0.480000 -0.502812
v -0.176779 -0.480000 0.502812
v 0.176779 -0.480000 -0.502812
v 0.176779 -0.288000 -0.502812
v -0.176779 -0.288000 -0.502812
v 0.176779 -0.480000 0.502812
v 0.176779 -0.288000 0.502812
v -0.176779 -0.288000 0.502812
v -0.090000 1.053624 0.000000
v 0.090000 1.053624 0.000000
v 0.090000 -0.288000 0.000000
v -0.090000 -0.288000 0.000000
v -0.176779 -0.480000 0.000000
v 0.176779 -0.480000 0.000000
v 0.176779 -0.288000 0.000000
v -0.176779 -0.288000 0.000000
v 0.090000 -0.288000 0.292500
v -0.176779 -0.480000 0.377109
v 0.176779 -0.288000 0.377109
v -0.090000 -0.288000 0.292500
v 0.176779 -0.480000 0.377109
v -0.176779 -0.288000 0.377109
v 0.090000 0.734765 -0.292500
v -0.090000 0.734765 -0.292500
v 0.090000 0.734765 0.292500
v -0.090000 0.734765 0.292500
v -0.090000 0.919461 0.000000
v 0.090000 0.919461 0.000000
v 0.090000 -0.288000 -0.292500
v -0.176779 -0.480000 -0.377109
v 0.176779 -0.288000 -0.377109
v -0.090000 -0.288000 -0.292500
v 0.176779 -0.480000 -0.377109
v -0.176779 -0.288000 -0.377109
v 0.017599 0.919461 0.000000
v 0.017599 -0.288000 0.000000
v 0.017599 -0.288000 0.292500
v 0.017599 0.734765 0.292500
v 0.017599 0.734765 -0.292500
v 0.017599 -0.288000 -0.292500
vn -0.6165 0.3632 0.6986
vn -0.6165 0.3632 -0.6986
vn 0.6165 0.3632 0.6986
vn 0.6165 0.3632 -0.6986
vn -0.3015 0.9045 0.3015
vn -0.3015 0.9045 -0.3015
vn 0.3015 0.9045 -0.3015
vn 0.3015 0.9045 0.3015
vn -0.7071 -0.0000 -0.7071
vn -0.7071 -0.0000 0.7071
vn 0.7071 -0.0000 -0.7071
vn 0.5773 0.5774 -0.5773
vn -0.5773 0.5774 -0.5773
vn 0.7071 -0.0000 0.7071
vn 0.5773 0.5774 0.5773
vn -0.5773 0.5774 0.5773
vn -0.5978 0.8016 -0.0000
vn 0.5978 0.8016 -0.0000
vn -0.0000 1.0000 -0.0000
vn -0.7071 0.7071 -0.0000
vn -1.0000 -0.0000 -0.0000
vn 1.0000 -0.0000 -0.0000
vn 0.7071 0.7071 -0.0000
vn 0.8334 -0.2668 0.4840
vn 0.8334 -0.2668 -0.4840
vn 0.8490 -0.5284 -0.0000
vn 0.6044 -0.7967 -0.0000
vn 0.5774 0.5774 -0.5774
vn 0.6129 -0.3815 -0.6920
vn 0.6129 -0.3815 0.6920
vn 0.5774 0.5774 0.5774
vt 0.006148 0.498050
vt 0.006141 0.445665
vt 0.054908 0.445659
vt 0.054915 0.498044
vt 0.086100 0.521739
vt 0.054918 0.521743
vt 0.086097 0.498040
vt 0.006173 0.694050
vt 0.054940 0.694044
vt 0.054946 0.746429
vt 0.006179 0.746435
vt 0.006170 0.670351
vt 0.054937 0.670345
vt 0.086087 0.421956
vt 0.054905 0.421960
vt 0.054896 0.347659
vt 0.086078 0.347655
vt 0.086122 0.694040
vt 0.086128 0.746425
vt 0.086090 0.445655
vt 0.086119 0.670341
vt 0.470342 0.875914
vt 0.560136 0.932604
vt 0.560139 0.973788
vt 0.440413 0.889802
vt 0.086131 0.770124
vt 0.086141 0.844425
vt 0.054959 0.844429
vt 0.054949 0.770128
vt 0.006182 0.770134
vt 0.006192 0.844435
vt 0.006138 0.421966
vt 0.006129 0.347665
vt 0.006151 0.521749
vt 0.649921 0.875901
vt 0.679852 0.889785
vt 0.086109 0.596040
vt 0.054927 0.596044
vt 0.006160 0.596050
vt 0.044671 0.520374
vt 0.000874 0.520374
vt 0.000875 0.405353
vt 0.044672 0.405354
vt 0.064485 0.520374
vt 0.064485 0.405354
vt 0.044671 0.635395
vt 0.000874 0.635394
vt 0.064485 0.635395
vt 0.064487 0.068339
vt 0.076818 0.068339
vt 0.076817 0.405354
vt 0.440389 0.561956
vt 0.470318 0.561953
vt 0.064483 0.972410
vt 0.076816 0.635395
vt 0.076815 0.972410
vt 0.679827 0.561938
vt 0.649898 0.561940
vt 0.560108 0.561947
vt 0.044670 0.972410
vt 0.044673 0.068339
vt 0.000876 0.068338
vt 0.000873 0.972409
vt 0.856036 0.084125
vt 0.958158 0.084117
vt 0.958185 0.441201
vt 0.856067 0.505693
vt 0.753940 0.441216
vt 0.753913 0.084132
vt 0.104489 0.521736
vt 0.104499 0.596038
vt 0.104508 0.670339
vt 0.076817 0.520374
s 1
usemtl Headstones
f 11/1/11 9/2/9 13/3/13 12/4/12
f 37/5/8 39/6/23 12/4/12 7/7/7
f 14/8/14 15/9/15 16/10/16 10/11/10
f 29/12/22 27/13/23 15/9/15 14/8/14
f 40/14/20 42/15/20 24/16/20 20/17/20
f 8/18/8 5/19/5 16/10/16 15/9/15
f 7/7/7 12/4/12 13/3/13 6/20/6
f 25/21/7 8/18/8 15/9/15 27/13/23
f 32/22/21 35/23/21 17/24/17 2/25/2
f 28/26/20 20/27/20 24/28/20 30/29/20
f 26/30/21 30/29/20 24/28/20 21/31/21
f 38/32/21 21/33/21 24/16/20 42/15/20
f 41/34/22 11/1/11 12/4/12 39/6/23
f 34/35/21 1/36/1 17/24/17 35/23/21
f 10/11/10 16/10/16 30/29/20 26/30/21
f 5/19/5 28/26/20 30/29/20 16/10/16
f 19/37/19 25/21/7 27/13/23 23/38/23
f 22/39/22 23/38/23 27/13/23 29/12/22
f 18/40/18 17/41/17 1/42/1 3/43/3
f 36/44/26 18/40/18 3/43/3 33/45/25
f 9/2/9 38/32/21 42/15/20 13/3/13
f 6/20/6 13/3/13 42/15/20 40/14/20
f 19/37/19 23/38/23 39/6/23 37/5/8
f 22/39/22 41/34/22 39/6/23 23/38/23
f 18/40/18 4/46/4 2/47/2 17/41/17
f 36/44/26 31/48/24 4/46/4 18/40/18
f 33/45/25 25/49/7 45/50/28 46/51/29
f 6/52/6 40/53/20 32/22/21 2/25/2
f 37/54/8 31/48/24 47/55/30 48/56/31
f 5/57/5 1/36/1 34/35/21 28/58/20
f 28/58/20 34/35/21 35/23/21 20/59/20
f 37/54/8 7/60/7 4/46/4 31/48/24
f 40/53/20 20/59/20 35/23/21 32/22/21
f 8/61/8 3/43/3 1/42/1 5/62/5
f 7/60/7 6/63/6 2/47/2 4/46/4
f 25/49/7 33/45/25 3/43/3 8/61/8
f 44/64/23 48/65/31 47/66/30 43/67/27
f 44/64/23 43/67/27 46/68/29 45/69/28
f 19/37/19 37/5/8 48/70/31 44/71/23
f 25/21/7 19/37/19 44/71/23 45/72/28
f 31/48/24 36/44/26 43/73/27 47/55/30
f 36/44/26 33/45/25 46/51/29 43/73/27
