# Blender 5.0.1
# www.blender.org
mtllib HeadStone_Pristine.mtl
o Headstone_Prestine
v -0.092585 0.074334 -0.308615
v 0.092585 0.074334 -0.308615
v -0.092585 0.731616 0.000001
v 0.092585 0.731616 0.000001
v 0.092585 0.074334 0.000001
v -0.092585 0.074334 0.000001
v -0.092585 0.608722 -0.241075
v -0.092585 0.459588 -0.308615
v -0.092585 0.550780 -0.288833
v 0.092585 0.459588 -0.308615
v 0.092585 0.608722 -0.241075
v 0.092585 0.550780 -0.288833
v -0.092585 -0.275636 -0.341510
v 0.092585 -0.275636 -0.341510
v -0.092585 -0.275636 0.000001
v 0.092585 -0.275636 0.000001
v -0.092585 0.074334 0.308617
v 0.092585 0.074334 0.308617
v -0.092585 0.608722 0.241076
v -0.092585 0.459588 0.308617
v -0.092585 0.550780 0.288835
v 0.092585 0.459588 0.308617
v 0.092585 0.608722 0.241076
v 0.092585 0.550780 0.288835
v -0.092585 -0.275636 0.341512
v 0.092585 -0.275636 0.341512
v -0.133127 -0.272056 -0.379602
v -0.130773 -0.424357 -0.396040
v 0.130773 -0.424357 -0.396040
v 0.133126 -0.272056 -0.379602
v 0.148329 -0.424357 0.000001
v -0.148329 -0.424357 0.000001
v -0.148329 -0.275636 0.000001
v 0.148329 -0.275636 0.000001
v -0.133127 -0.272056 0.379604
v -0.130773 -0.424357 0.396042
v 0.130773 -0.424357 0.396042
v 0.133126 -0.272056 0.379604
vn -0.7178 0.0326 -0.6955
vn 0.7178 0.0326 -0.6955
vn -0.6177 0.7864 -0.0000
vn 0.6177 0.7864 -0.0000
vn 1.0000 -0.0000 -0.0000
vn -1.0000 -0.0000 -0.0000
vn -0.6640 0.5831 -0.4681
vn -0.6839 0.0778 -0.7254
vn -0.6577 0.3286 -0.6778
vn 0.6839 0.0778 -0.7254
vn 0.6640 0.5831 -0.4681
vn 0.6577 0.3286 -0.6778
vn -0.2678 0.9292 -0.2547
vn 0.2678 0.9292 -0.2547
vn -0.6947 0.7193 -0.0000
vn 0.6947 0.7193 -0.0000
vn -0.7178 0.0326 0.6955
vn 0.7178 0.0326 0.6955
vn -0.6640 0.5831 0.4681
vn -0.6839 0.0778 0.7254
vn -0.6577 0.3286 0.6778
vn 0.6839 0.0778 0.7254
vn 0.6640 0.5831 0.4681
vn 0.6577 0.3286 0.6778
vn -0.2678 0.9292 0.2547
vn 0.2678 0.9292 0.2547
vn -0.5725 0.6180 -0.5388
vn -0.6638 0.0736 -0.7443
vn 0.6638 0.0736 -0.7443
vn 0.5725 0.6180 -0.5388
vn 1.0000 -0.0055 -0.0000
vn -1.0000 -0.0055 -0.0000
vn -0.7081 0.7061 -0.0000
vn 0.7081 0.7061 -0.0000
vn -0.5725 0.6180 0.5388
vn -0.6638 0.0736 0.7443
vn 0.6638 0.0736 0.7443
vn 0.5725 0.6180 0.5388
vt 0.000000 1.000000
vt 0.000000 0.850517
vt 0.078745 0.850517
vt 0.078745 1.000000
vt 0.555400 0.560801
vt 0.555391 0.709628
vt 0.424150 0.709620
vt 0.410171 0.560791
vt 0.991090 0.560828
vt 0.977092 0.709654
vt 0.845851 0.709646
vt 0.845860 0.560819
vt 0.000000 0.615071
vt 0.078745 0.615071
vt 0.078745 0.647003
vt 0.000000 0.647003
vt 0.078745 0.686685
vt 0.000000 0.686685
vt 0.000000 0.500000
vt 0.078745 0.500000
vt 0.555374 0.989142
vt 0.452858 0.936874
vt 0.432550 0.912232
vt 0.424140 0.873451
vt 0.977081 0.873486
vt 0.968666 0.912266
vt 0.948355 0.936905
vt 0.845833 0.989160
vt 0.091788 0.281976
vt 0.091789 0.375542
vt 0.065491 0.375542
vt 0.065491 0.281976
vt 0.091788 0.758498
vt 0.091789 0.903194
vt 0.065491 0.903194
vt 0.065491 0.758498
vt 0.000000 0.000000
vt 0.078745 0.000000
vt 0.078745 0.149483
vt 0.000000 0.149483
vt 0.700630 0.560810
vt 0.686632 0.709636
vt 0.714610 0.709638
vt 0.000000 0.384929
vt 0.000000 0.352997
vt 0.078745 0.352997
vt 0.078745 0.384929
vt 0.000000 0.313315
vt 0.078745 0.313315
vt 0.686622 0.873468
vt 0.678207 0.912247
vt 0.657896 0.936886
vt 0.714599 0.873470
vt 0.743317 0.936892
vt 0.723009 0.912250
vt 0.091789 0.137281
vt 0.065491 0.137281
vt -0.006076 0.375542
vt 0.065491 0.520237
vt -0.006076 0.520237
vt -0.006076 0.137281
vt -0.006076 0.281976
vt -0.006076 0.664933
vt 0.065491 0.664933
vt -0.006076 0.903194
vt -0.006076 0.758498
vt 0.091789 0.664933
vt 0.091789 0.520237
s 1
usemtl Headstones
f 13/1/13 1/2/1 2/3/2 14/4/14
f 15/5/15 6/6/6 1/7/1 13/8/13
f 14/9/14 2/10/2 5/11/5 16/12/16
f 7/13/7 11/14/11 12/15/12 9/16/9
f 9/16/9 12/15/12 10/17/10 8/18/8
f 11/14/11 7/13/7 3/19/3 4/20/4
f 1/2/1 8/18/8 10/17/10 2/3/2
f 3/21/3 7/22/7 9/23/9 8/24/8
f 10/25/10 12/26/12 11/27/11 4/28/4
f 13/29/13 14/30/14 30/31/30 27/32/27
f 25/33/25 15/34/15 33/35/33 35/36/35
f 25/37/25 26/38/26 18/39/18 17/40/17
f 15/5/15 25/41/25 17/42/17 6/6/6
f 26/41/26 16/12/16 5/11/5 18/43/18
f 19/44/19 21/45/21 24/46/24 23/47/23
f 21/45/21 20/48/20 22/49/22 24/46/24
f 23/47/23 4/20/4 3/19/3 19/44/19
f 17/40/17 18/39/18 22/49/22 20/48/20
f 3/21/3 20/50/20 21/51/21 19/52/19
f 22/53/22 4/28/4 23/54/23 24/55/24
f 15/56/15 13/29/13 27/32/27 33/57/33
f 29/58/29 30/31/30 34/59/34 31/60/31
f 32/61/32 33/57/33 27/32/27 28/62/28
f 28/62/28 27/32/27 30/31/30 29/58/29
f 37/63/37 31/60/31 34/59/34 38/64/38
f 32/65/32 36/66/36 35/36/35 33/35/33
f 36/66/36 37/63/37 38/64/38 35/36/35
f 26/67/26 25/33/25 35/36/35 38/64/38
f 14/30/14 16/68/16 34/59/34 30/31/30
f 16/68/16 26/67/26 38/64/38 34/59/34
f 18/43/18 5/11/5 4/28/4 22/53/22
f 2/10/2 10/25/10 4/28/4 5/11/5
f 6/6/6 17/42/17 20/50/20 3/21/3
f 6/6/6 3/21/3 8/24/8 1/7/1
