# Blender 5.0.1
# www.blender.org
mtllib HeadStone_Damaged.mtl
o Headstone_Damaged
v -0.092585 0.731616 0.000001
v 0.092585 0.731616 0.000001
v 0.092585 0.074334 0.000001
v -0.092585 0.074334 0.000001
v -0.092585 0.608722 -0.241075
v -0.092585 0.459588 -0.308615
v -0.092585 0.550780 -0.288833
v 0.092585 0.459588 -0.308615
v 0.092585 0.608722 -0.241075
v 0.092585 0.550780 -0.288833
v -0.092585 -0.275636 -0.341510
v 0.092585 -0.275636 -0.341510
v -0.092585 -0.275636 0.000001
v 0.092585 -0.275636 0.000001
v -0.092585 0.074334 0.308617
v 0.092585 0.074334 0.308617
v -0.092585 0.405691 0.308617
v 0.092585 0.651223 0.157704
v -0.092585 -0.275636 0.341512
v 0.092585 -0.275636 0.341512
v -0.133127 -0.272056 -0.379602
v -0.130773 -0.424357 -0.396040
v 0.130773 -0.424357 -0.396040
v 0.133126 -0.272056 -0.379602
v 0.148329 -0.424357 0.000001
v -0.148329 -0.424357 0.000001
v -0.148329 -0.275636 0.000001
v 0.148329 -0.275636 0.000001
v -0.133127 -0.272056 0.379604
v -0.130773 -0.424357 0.396042
v 0.130773 -0.424357 0.396042
v 0.133126 -0.272056 0.379604
v 0.092585 0.488859 0.156338
v -0.092585 0.488859 0.156338
v 0.092585 0.479016 0.000001
v -0.092585 0.479016 0.000001
v 0.008462 0.405691 0.308617
v 0.092585 0.321568 0.308617
v 0.092585 0.421570 0.226006
v -0.003912 0.651223 0.157704
v -0.092585 0.691495 0.078704
v -0.092585 0.562553 0.156958
v -0.092585 0.110455 -0.308615
v -0.092585 0.038372 -0.311995
v -0.092585 0.074334 -0.272494
v 0.092585 0.038372 -0.311995
v 0.092585 0.110455 -0.308615
v 0.092585 0.074334 -0.272494
vn -0.6177 0.7864 -0.0000
vn 0.6177 0.7864 -0.0000
vn 1.0000 -0.0000 -0.0000
vn -1.0000 -0.0000 -0.0000
vn -0.6640 0.5831 -0.4681
vn -0.6839 0.0778 -0.7254
vn -0.6577 0.3286 -0.6778
vn 0.6839 0.0778 -0.7254
vn 0.6640 0.5831 -0.4681
vn 0.6577 0.3286 -0.6778
vn -0.2678 0.9292 -0.2547
vn 0.2678 0.9292 -0.2547
vn -0.6947 0.7193 -0.0000
vn 0.6947 0.7193 -0.0000
vn -0.7178 0.0326 0.6955
vn 0.7178 0.0326 0.6955
vn -0.5805 0.3996 0.7094
vn 0.6057 0.4128 0.6802
vn -0.2678 0.9292 0.2547
vn 0.2678 0.9292 0.2547
vn -0.5725 0.6180 -0.5388
vn -0.6638 0.0736 -0.7443
vn 0.6638 0.0736 -0.7443
vn 0.5725 0.6180 -0.5388
vn 1.0000 -0.0055 -0.0000
vn -1.0000 -0.0055 -0.0000
vn -0.7081 0.7061 -0.0000
vn 0.7081 0.7061 -0.0000
vn -0.5725 0.6180 0.5388
vn -0.6638 0.0736 0.7443
vn 0.6638 0.0736 0.7443
vn 0.5725 0.6180 0.5388
vn 0.8307 0.2729 0.4852
vn -0.8428 0.2726 0.4640
vn 0.1979 0.4933 0.8471
vn 0.6995 0.1251 0.7036
vn 0.7974 0.4742 0.3732
vn -0.1159 0.5153 0.8491
vn -0.6996 0.5850 0.4103
vn -0.6996 0.0939 0.7083
vn -0.6303 -0.2971 -0.7173
vn -0.6342 0.3453 -0.6918
vn -0.9100 0.0097 -0.4146
vn 0.6342 0.3453 -0.6918
vn 0.6303 -0.2971 -0.7173
vn 0.9100 0.0097 -0.4146
vt 0.081923 0.397006
vt 0.003815 0.395428
vt 0.004455 0.363754
vt 0.082563 0.365332
vt 0.005250 0.324393
vt 0.083358 0.325971
vt 0.079617 0.511148
vt 0.001509 0.509570
vt 0.429771 0.868652
vt 0.558723 0.876780
vt 0.457988 0.930969
vt 0.438034 0.906757
vt 0.558716 0.982327
vt -0.010892 0.780388
vt -0.010892 0.672879
vt 0.011113 0.672879
vt 0.011113 0.780388
vt -0.010892 0.196367
vt -0.010892 0.005541
vt 0.011113 0.005541
vt 0.011113 0.196367
vt 0.084721 1.000000
vt 0.008377 0.998592
vt 0.011050 0.853667
vt 0.087393 0.855075
vt 0.558747 0.561454
vt 0.701444 0.561465
vt 0.687688 0.707696
vt 0.558736 0.707687
vt 0.703379 0.562589
vt 0.846076 0.562628
vt 0.846036 0.708860
vt 0.717083 0.708825
vt 0.687678 0.846151
vt 0.624047 0.880897
vt -0.010892 0.979777
vt 0.011113 0.979777
vt 0.070999 0.672879
vt 0.011113 0.473490
vt 0.070999 0.473490
vt 0.070999 0.979777
vt 0.070999 0.780388
vt 0.070999 0.316515
vt 0.011113 0.316515
vt 0.070999 0.005541
vt 0.070999 0.196367
vt -0.010892 0.316515
vt -0.010892 0.473490
vt 0.974944 0.869871
vt 0.966667 0.907973
vt 0.946705 0.932178
vt 0.845989 0.877954
vt 0.845960 0.983501
vt 0.780074 0.949891
vt 0.780664 0.882048
vt 0.047855 0.719072
vt 0.012930 0.751735
vt 0.007592 0.694455
vt 0.089913 0.718460
vt 0.005901 0.652376
vt 0.040810 0.582802
vt 0.078376 0.549200
vt 0.080462 0.614020
vt 0.083607 0.645646
vt -0.000000 0.584237
vt 0.624304 0.911690
vt 0.591602 0.965565
vt 0.717055 0.812129
vt 0.751561 0.853924
vt 0.086334 0.178699
vt 0.008225 0.177121
vt 0.008661 0.155573
vt 0.086769 0.157151
vt 0.009116 0.133039
vt 0.087225 0.134618
vt 0.444876 0.707678
vt 0.428372 0.692650
vt 0.416049 0.561444
vt 0.089913 0.001578
vt 0.011804 0.000000
vt 0.429782 0.722770
vt 0.988774 0.562668
vt 0.976405 0.693870
vt 0.959896 0.708892
vt 0.974984 0.723989
s 1
usemtl Headstones
f 5/1/5 9/2/9 10/3/10 7/4/7
f 7/4/7 10/3/10 8/5/8 6/6/6
f 9/2/9 5/1/5 1/7/1 2/8/2
f 6/9/6 36/10/4 5/11/5 7/12/7
f 36/10/4 1/13/1 5/11/5
f 11/14/11 12/15/12 24/16/24 21/17/21
f 19/18/19 13/19/13 27/20/27 29/21/29
f 19/22/19 20/23/20 16/24/16 15/25/15
f 13/26/13 19/27/19 15/28/15 4/29/4
f 20/30/20 14/31/14 3/32/3 16/33/16
f 4/29/4 15/28/15 17/34/17 34/35/34 36/10/4
f 13/36/13 11/14/11 21/17/21 27/37/27
f 23/38/23 24/16/24 28/39/28 25/40/25
f 26/41/26 27/37/27 21/17/21 22/42/22
f 22/42/22 21/17/21 24/16/24 23/38/23
f 31/43/31 25/40/25 28/39/28 32/44/32
f 26/45/26 30/46/30 29/21/29 27/20/27
f 30/46/30 31/43/31 32/44/32 29/21/29
f 20/47/20 19/18/19 29/21/29 32/44/32
f 12/15/12 14/48/14 28/39/28 24/16/24
f 14/48/14 20/47/20 32/44/32 28/39/28
f 8/49/8 10/50/10 9/51/9 35/52/3
f 2/53/2 18/54/18 33/55/33 35/52/3
f 35/52/3 9/51/9 2/53/2
f 37/56/35 38/57/36 39/58/37
f 17/59/17 37/56/35 39/58/37 33/60/33
f 16/24/16 38/57/36 37/56/35 17/59/17
f 16/33/16 3/32/3 35/52/3 33/55/33
f 40/61/38 41/62/39 42/63/40
f 34/64/34 33/60/33 18/65/18
f 18/65/18 2/8/2 1/7/1
f 34/35/34 42/66/40 41/67/39 1/13/1
f 42/63/40 34/64/34 18/65/18 40/61/38
f 40/61/38 18/65/18 1/7/1 41/62/39
f 36/10/4 34/35/34 1/13/1
f 34/64/34 17/59/17 33/60/33
f 15/25/15 16/24/16 17/59/17
f 38/68/36 16/33/16 33/55/33 39/69/37
f 43/70/41 47/71/45 48/72/46 45/73/43
f 45/73/43 48/72/46 46/74/44 44/75/42
f 43/70/41 6/6/6 8/5/8 47/71/45
f 13/26/13 4/29/4 45/76/43 44/77/42 11/78/11
f 11/79/11 44/75/42 46/74/44 12/80/12
f 4/29/4 36/10/4 6/9/6 43/81/41 45/76/43
f 12/82/12 46/83/44 48/84/46 3/32/3 14/31/14
f 48/84/46 47/85/45 8/49/8 35/52/3 3/32/3
