# Blender 5.0.1
# www.blender.org
mtllib PartyFlags.mtl
o PartyFlags
v 0.001461 2.506060 1.748024
v 0.016461 2.492406 1.754235
v 0.001461 2.478752 1.760446
v -0.013539 2.492406 1.754235
v 0.001461 2.472317 1.673289
v 0.016461 2.458607 1.679375
v 0.001461 2.444897 1.685460
v -0.013539 2.458607 1.679375
v 0.001461 2.432424 1.581848
v 0.016461 2.418616 1.587706
v 0.001461 2.404807 1.593564
v -0.013539 2.418616 1.587706
v 0.001461 2.388113 1.474381
v 0.016461 2.374173 1.479921
v 0.001461 2.360234 1.485461
v -0.013539 2.374173 1.479921
v 0.001461 2.341107 1.351559
v 0.016461 2.327020 1.356711
v 0.001461 2.312932 1.361862
v -0.013539 2.327020 1.356711
v 0.001461 2.293140 1.214065
v 0.016461 2.278896 1.218767
v 0.001461 2.264652 1.223469
v -0.013539 2.278896 1.218767
v 0.001461 2.245943 1.062588
v 0.016461 2.231542 1.066783
v 0.001461 2.217140 1.070978
v -0.013539 2.231542 1.066783
v 0.001461 2.201252 0.897817
v 0.016461 2.186698 0.901448
v 0.001461 2.172144 0.905080
v -0.013539 2.186698 0.901448
v 0.001461 2.160800 0.720444
v 0.016461 2.146105 0.723456
v 0.001461 2.131411 0.726469
v -0.013539 2.146105 0.723456
v 0.001461 2.126320 0.531161
v 0.016461 2.111503 0.533499
v 0.001461 2.096686 0.535836
v -0.013539 2.111503 0.533499
v 0.001461 2.099546 0.330660
v 0.016461 2.084633 0.332267
v 0.001461 2.069719 0.333874
v -0.013539 2.084633 0.332267
v 0.001461 2.082211 0.119629
v 0.016461 2.067234 0.120452
v 0.001461 2.052257 0.121276
v -0.013539 2.067234 0.120452
v 0.001461 2.076048 -0.101240
v 0.016461 2.061048 -0.101252
v 0.001461 2.046048 -0.101265
v -0.013539 2.061048 -0.101252
v 0.001461 2.082449 -0.317802
v 0.016461 2.067476 -0.318697
v 0.001461 2.052502 -0.319592
v -0.013539 2.067476 -0.318697
v 0.001461 2.100403 -0.516984
v 0.016461 2.085510 -0.518780
v 0.001461 2.070618 -0.520576
v -0.013539 2.085510 -0.518780
v 0.001461 2.128040 -0.699703
v 0.016461 2.113281 -0.702382
v 0.001461 2.098522 -0.705061
v -0.013539 2.113281 -0.702382
v 0.001461 2.163495 -0.866861
v 0.016461 2.148914 -0.870384
v 0.001461 2.134334 -0.873907
v -0.013539 2.148914 -0.870384
v 0.001461 2.204908 -1.019362
v 0.016461 2.190538 -1.023667
v 0.001461 2.176169 -1.027972
v -0.013539 2.190538 -1.023667
v 0.001461 2.250424 -1.158113
v 0.016461 2.236282 -1.163112
v 0.001461 2.222140 -1.168112
v -0.013539 2.236282 -1.163112
v 0.001461 2.298195 -1.284018
v 0.016461 2.284272 -1.289600
v 0.001461 2.270350 -1.295182
v -0.013539 2.284272 -1.289600
v 0.001461 2.346376 -1.397990
v 0.016461 2.332638 -1.404012
v 0.001461 2.318900 -1.410034
v -0.013539 2.332638 -1.404012
v 0.001461 2.393127 -1.500948
v 0.016461 2.379506 -1.507229
v 0.001461 2.365884 -1.513510
v -0.013539 2.379506 -1.507229
v 0.001461 2.436615 -1.593826
v 0.016461 2.423005 -1.600132
v 0.001461 2.409394 -1.606437
v -0.013539 2.423005 -1.600132
v 0.001461 2.475008 -1.677596
v 0.016461 2.461262 -1.683601
v 0.001461 2.447516 -1.689606
v -0.013539 2.461262 -1.683601
v 0.001461 2.506428 -1.753189
v 0.016461 2.492406 -1.758519
v 0.001461 2.478385 -1.763848
v -0.013539 2.492406 -1.758519
v 0.001461 2.164331 0.813811
v 0.001461 1.711897 0.687574
v 0.001461 2.117245 0.541915
v 0.001461 2.055723 0.060738
v 0.001461 1.619817 -0.069829
v 0.001461 2.052024 -0.212161
v 0.001461 2.393878 1.530275
v 0.001461 1.882767 1.412010
v 0.001461 2.288508 1.266165
v 0.001461 2.414425 -1.591791
v 0.001461 2.291146 -1.324714
v 0.001461 1.928750 -1.480588
v 0.001461 2.194340 -1.047027
v 0.001461 2.120904 -0.781719
v 0.001461 1.677741 -0.942260
v -0.026465 0.000000 1.779992
v -0.026465 0.000000 1.736578
v 0.026465 0.000000 1.779992
v 0.026465 0.000000 1.736578
v -0.026464 2.686671 1.779992
v -0.026464 2.686671 1.736578
v 0.026466 2.686671 1.779992
v 0.026466 2.686671 1.736578
v -0.026465 0.000000 -1.736578
v -0.026465 0.000000 -1.779992
v 0.026465 0.000000 -1.736578
v 0.026465 0.000000 -1.779992
v -0.026464 2.686671 -1.736578
v -0.026464 2.686671 -1.779992
v 0.026466 2.686671 -1.736578
v 0.026466 2.686671 -1.779992
vn -0.0000 0.9114 -0.4115
vn 1.0000 -0.0011 0.0005
vn -0.0000 -0.9114 0.4115
vn -1.0000 -0.0011 0.0005
vn -0.0000 0.9140 -0.4057
vn 1.0000 -0.0026 0.0012
vn -0.0000 -0.9140 0.4057
vn -1.0000 -0.0026 0.0012
vn -0.0000 0.9206 -0.3905
vn 1.0000 -0.0042 0.0018
vn -0.0000 -0.9206 0.3905
vn -1.0000 -0.0042 0.0018
vn -0.0000 0.9293 -0.3693
vn 1.0000 -0.0053 0.0021
vn -0.0000 -0.9293 0.3693
vn -1.0000 -0.0053 0.0021
vn -0.0000 0.9392 -0.3435
vn 1.0000 -0.0063 0.0023
vn -0.0000 -0.9392 0.3434
vn -1.0000 -0.0063 0.0023
vn -0.0000 0.9496 -0.3135
vn 1.0000 -0.0072 0.0024
vn -0.0000 -0.9496 0.3135
vn -1.0000 -0.0072 0.0024
vn -0.0000 0.9601 -0.2797
vn 1.0000 -0.0080 0.0023
vn -0.0000 -0.9601 0.2797
vn -1.0000 -0.0080 0.0023
vn -0.0000 0.9702 -0.2421
vn 1.0000 -0.0089 0.0022
vn -0.0000 -0.9702 0.2421
vn -1.0000 -0.0089 0.0022
vn -0.0000 0.9796 -0.2008
vn 1.0000 -0.0097 0.0020
vn -0.0000 -0.9796 0.2008
vn -1.0000 -0.0097 0.0020
vn -0.0000 0.9878 -0.1558
vn 0.9999 -0.0105 0.0017
vn -0.0000 -0.9878 0.1558
vn -0.9999 -0.0105 0.0017
vn -0.0000 0.9942 -0.1071
vn 0.9999 -0.0114 0.0012
vn -0.0000 -0.9942 0.1071
vn -0.9999 -0.0114 0.0012
vn -0.0000 0.9985 -0.0549
vn 0.9999 -0.0121 0.0007
vn -0.0000 -0.9985 0.0549
vn -0.9999 -0.0121 0.0007
vn -0.0000 1.0000 0.0008
vn 0.9999 -0.0129 -0.0000
vn -0.0000 -1.0000 -0.0008
vn -0.9999 -0.0129 -0.0000
vn -0.0000 0.9982 0.0597
vn 0.9999 -0.0135 -0.0008
vn -0.0000 -0.9982 -0.0597
vn -0.9999 -0.0135 -0.0008
vn -0.0000 0.9928 0.1197
vn 0.9999 -0.0134 -0.0016
vn -0.0000 -0.9928 -0.1197
vn -0.9999 -0.0134 -0.0016
vn -0.0000 0.9839 0.1786
vn 0.9999 -0.0130 -0.0024
vn -0.0000 -0.9839 -0.1786
vn -0.9999 -0.0130 -0.0024
vn -0.0000 0.9720 0.2349
vn 0.9999 -0.0123 -0.0030
vn -0.0000 -0.9720 -0.2349
vn -0.9999 -0.0123 -0.0030
vn -0.0000 0.9579 0.2870
vn 0.9999 -0.0112 -0.0033
vn -0.0000 -0.9579 -0.2870
vn -0.9999 -0.0112 -0.0033
vn -0.0000 0.9428 0.3333
vn 0.9999 -0.0097 -0.0034
vn -0.0000 -0.9428 -0.3333
vn -0.9999 -0.0097 -0.0034
vn -0.0000 0.9282 0.3721
vn 1.0000 -0.0078 -0.0031
vn -0.0000 -0.9282 -0.3721
vn -1.0000 -0.0078 -0.0031
vn -0.0000 0.9159 0.4014
vn 1.0000 -0.0054 -0.0024
vn -0.0000 -0.9159 -0.4014
vn -1.0000 -0.0054 -0.0024
vn -0.0000 0.9081 0.4188
vn 1.0000 -0.0024 -0.0011
vn -0.0000 -0.9081 -0.4187
vn -1.0000 -0.0024 -0.0011
vn -0.0000 0.9074 0.4203
vn 1.0000 0.0017 0.0008
vn -0.0000 -0.9074 -0.4204
vn -1.0000 0.0017 0.0008
vn -0.0000 0.9164 0.4003
vn 1.0000 0.0074 0.0032
vn -0.0000 -0.9164 -0.4003
vn -1.0000 0.0074 0.0032
vn -0.0000 0.9234 0.3838
vn 0.9999 0.0128 0.0053
vn -0.0000 -0.9234 -0.3839
vn -0.9999 0.0128 0.0053
vn 1.0000 -0.0000 -0.0000
vn -0.7071 -0.0000 0.7071
vn -0.7071 -0.0000 -0.7071
vn 0.7071 -0.0000 0.7071
vn 0.7071 -0.0000 -0.7071
vt 0.222025 0.821298
vt 0.222043 0.820567
vt 0.218215 0.820567
vt 0.218201 0.821298
vt 0.225850 0.821298
vt 0.225870 0.820567
vt 0.229674 0.821299
vt 0.229690 0.820567
vt 0.233499 0.821299
vt 0.233510 0.820567
vt 0.222062 0.819677
vt 0.218236 0.819677
vt 0.225889 0.819677
vt 0.229704 0.819677
vt 0.233520 0.819677
vt 0.222084 0.818640
vt 0.218261 0.818640
vt 0.225907 0.818640
vt 0.229718 0.818640
vt 0.233530 0.818640
vt 0.222106 0.817468
vt 0.218288 0.817468
vt 0.225924 0.817468
vt 0.229730 0.817469
vt 0.233536 0.817469
vt 0.222129 0.816173
vt 0.218318 0.816172
vt 0.225940 0.816173
vt 0.229739 0.816173
vt 0.233538 0.816173
vt 0.222151 0.814764
vt 0.218347 0.814764
vt 0.225955 0.814764
vt 0.229746 0.814764
vt 0.233537 0.814764
vt 0.222171 0.813251
vt 0.218376 0.813251
vt 0.225967 0.813251
vt 0.229749 0.813251
vt 0.233531 0.813251
vt 0.222189 0.811642
vt 0.218403 0.811642
vt 0.225976 0.811642
vt 0.229749 0.811642
vt 0.233522 0.811642
vt 0.222204 0.809945
vt 0.218428 0.809945
vt 0.225981 0.809945
vt 0.229744 0.809945
vt 0.233508 0.809945
vt 0.222216 0.808165
vt 0.218448 0.808165
vt 0.225983 0.808165
vt 0.229736 0.808165
vt 0.233490 0.808165
vt 0.222222 0.806307
vt 0.218464 0.806307
vt 0.225980 0.806307
vt 0.229725 0.806307
vt 0.233469 0.806306
vt 0.222223 0.804372
vt 0.218473 0.804372
vt 0.225973 0.804372
vt 0.229709 0.804371
vt 0.233445 0.804371
vt 0.222219 0.802477
vt 0.218474 0.802477
vt 0.225963 0.802477
vt 0.229691 0.802477
vt 0.233419 0.802477
vt 0.222209 0.800731
vt 0.218469 0.800731
vt 0.225949 0.800731
vt 0.229672 0.800731
vt 0.233396 0.800731
vt 0.222194 0.799118
vt 0.218455 0.799118
vt 0.225933 0.799118
vt 0.229654 0.799118
vt 0.233374 0.799118
vt 0.222174 0.797627
vt 0.218434 0.797627
vt 0.225914 0.797626
vt 0.229635 0.797626
vt 0.233356 0.797626
vt 0.222150 0.796247
vt 0.218407 0.796247
vt 0.225893 0.796246
vt 0.229617 0.796246
vt 0.233341 0.796246
vt 0.222123 0.794970
vt 0.218375 0.794970
vt 0.225870 0.794970
vt 0.229599 0.794970
vt 0.233329 0.794970
vt 0.222093 0.793792
vt 0.218341 0.793792
vt 0.225845 0.793791
vt 0.229581 0.793791
vt 0.233317 0.793791
vt 0.222063 0.792708
vt 0.218308 0.792708
vt 0.225819 0.792708
vt 0.229562 0.792708
vt 0.233305 0.792707
vt 0.222034 0.791718
vt 0.218278 0.791718
vt 0.225791 0.791718
vt 0.229541 0.791717
vt 0.233292 0.791717
vt 0.222007 0.790821
vt 0.218253 0.790821
vt 0.225760 0.790821
vt 0.229519 0.790820
vt 0.233277 0.790820
vt 0.221981 0.790018
vt 0.218235 0.790018
vt 0.225726 0.790018
vt 0.229494 0.790017
vt 0.233262 0.790017
vt 0.221957 0.789304
vt 0.218201 0.789309
vt 0.225714 0.789308
vt 0.229470 0.789312
vt 0.233226 0.789307
vt 0.007648 0.734194
vt 0.113765 0.488353
vt 0.218305 0.735659
vt 0.226398 0.991961
vt 0.332515 0.746120
vt 0.437055 0.993426
vt 0.225910 0.734194
vt 0.332027 0.488353
vt 0.436567 0.735659
vt 0.007720 0.991526
vt 0.218377 0.992992
vt 0.113837 0.745685
vt 0.008137 0.732729
vt 0.218793 0.734194
vt 0.114254 0.486888
vt 0.948718 0.007429
vt 0.929873 0.007429
vt 0.929873 0.992571
vt 0.948718 0.992571
s 1
usemtl PartySet
f 1/1/1 5/2/5 8/3/8 4/4/4
f 2/5/2 6/6/6 5/2/5 1/1/1
f 3/7/3 7/8/7 6/6/6 2/5/2
f 4/9/4 8/10/8 7/8/7 3/7/3
f 5/2/5 9/11/9 12/12/12 8/3/8
f 6/6/6 10/13/10 9/11/9 5/2/5
f 7/8/7 11/14/11 10/13/10 6/6/6
f 8/10/8 12/15/12 11/14/11 7/8/7
f 9/11/9 13/16/13 16/17/16 12/12/12
f 10/13/10 14/18/14 13/16/13 9/11/9
f 11/14/11 15/19/15 14/18/14 10/13/10
f 12/15/12 16/20/16 15/19/15 11/14/11
f 13/16/13 17/21/17 20/22/20 16/17/16
f 14/18/14 18/23/18 17/21/17 13/16/13
f 15/19/15 19/24/19 18/23/18 14/18/14
f 16/20/16 20/25/20 19/24/19 15/19/15
f 17/21/17 21/26/21 24/27/24 20/22/20
f 18/23/18 22/28/22 21/26/21 17/21/17
f 19/24/19 23/29/23 22/28/22 18/23/18
f 20/25/20 24/30/24 23/29/23 19/24/19
f 21/26/21 25/31/25 28/32/28 24/27/24
f 22/28/22 26/33/26 25/31/25 21/26/21
f 23/29/23 27/34/27 26/33/26 22/28/22
f 24/30/24 28/35/28 27/34/27 23/29/23
f 25/31/25 29/36/29 32/37/32 28/32/28
f 26/33/26 30/38/30 29/36/29 25/31/25
f 27/34/27 31/39/31 30/38/30 26/33/26
f 28/35/28 32/40/32 31/39/31 27/34/27
f 29/36/29 33/41/33 36/42/36 32/37/32
f 30/38/30 34/43/34 33/41/33 29/36/29
f 31/39/31 35/44/35 34/43/34 30/38/30
f 32/40/32 36/45/36 35/44/35 31/39/31
f 33/41/33 37/46/37 40/47/40 36/42/36
f 34/43/34 38/48/38 37/46/37 33/41/33
f 35/44/35 39/49/39 38/48/38 34/43/34
f 36/45/36 40/50/40 39/49/39 35/44/35
f 37/46/37 41/51/41 44/52/44 40/47/40
f 38/48/38 42/53/42 41/51/41 37/46/37
f 39/49/39 43/54/43 42/53/42 38/48/38
f 40/50/40 44/55/44 43/54/43 39/49/39
f 41/51/41 45/56/45 48/57/48 44/52/44
f 42/53/42 46/58/46 45/56/45 41/51/41
f 43/54/43 47/59/47 46/58/46 42/53/42
f 44/55/44 48/60/48 47/59/47 43/54/43
f 45/56/45 49/61/49 52/62/52 48/57/48
f 46/58/46 50/63/50 49/61/49 45/56/45
f 47/59/47 51/64/51 50/63/50 46/58/46
f 48/60/48 52/65/52 51/64/51 47/59/47
f 49/61/49 53/66/53 56/67/56 52/62/52
f 50/63/50 54/68/54 53/66/53 49/61/49
f 51/64/51 55/69/55 54/68/54 50/63/50
f 52/65/52 56/70/56 55/69/55 51/64/51
f 53/66/53 57/71/57 60/72/60 56/67/56
f 54/68/54 58/73/58 57/71/57 53/66/53
f 55/69/55 59/74/59 58/73/58 54/68/54
f 56/70/56 60/75/60 59/74/59 55/69/55
f 57/71/57 61/76/61 64/77/64 60/72/60
f 58/73/58 62/78/62 61/76/61 57/71/57
f 59/74/59 63/79/63 62/78/62 58/73/58
f 60/75/60 64/80/64 63/79/63 59/74/59
f 61/76/61 65/81/65 68/82/68 64/77/64
f 62/78/62 66/83/66 65/81/65 61/76/61
f 63/79/63 67/84/67 66/83/66 62/78/62
f 64/80/64 68/85/68 67/84/67 63/79/63
f 65/81/65 69/86/69 72/87/72 68/82/68
f 66/83/66 70/88/70 69/86/69 65/81/65
f 67/84/67 71/89/71 70/88/70 66/83/66
f 68/85/68 72/90/72 71/89/71 67/84/67
f 69/86/69 73/91/73 76/92/76 72/87/72
f 70/88/70 74/93/74 73/91/73 69/86/69
f 71/89/71 75/94/75 74/93/74 70/88/70
f 72/90/72 76/95/76 75/94/75 71/89/71
f 73/91/73 77/96/77 80/97/80 76/92/76
f 74/93/74 78/98/78 77/96/77 73/91/73
f 75/94/75 79/99/79 78/98/78 74/93/74
f 76/95/76 80/100/80 79/99/79 75/94/75
f 77/96/77 81/101/81 84/102/84 80/97/80
f 78/98/78 82/103/82 81/101/81 77/96/77
f 79/99/79 83/104/83 82/103/82 78/98/78
f 80/100/80 84/105/84 83/104/83 79/99/79
f 81/101/81 85/106/85 88/107/88 84/102/84
f 82/103/82 86/108/86 85/106/85 81/101/81
f 83/104/83 87/109/87 86/108/86 82/103/82
f 84/105/84 88/110/88 87/109/87 83/104/83
f 85/106/85 89/111/89 92/112/92 88/107/88
f 86/108/86 90/113/90 89/111/89 85/106/85
f 87/109/87 91/114/91 90/113/90 86/108/86
f 88/110/88 92/115/92 91/114/91 87/109/87
f 89/111/89 93/116/93 96/117/96 92/112/92
f 90/113/90 94/118/94 93/116/93 89/111/89
f 91/114/91 95/119/95 94/118/94 90/113/90
f 92/115/92 96/120/96 95/119/95 91/114/91
f 93/116/93 97/121/97 100/122/100 96/117/96
f 94/118/94 98/123/98 97/121/97 93/116/93
f 95/119/95 99/124/99 98/123/98 94/118/94
f 96/120/96 100/125/100 99/124/99 95/119/95
f 101/126/101 102/127/101 103/128/101
f 104/129/101 105/130/101 106/131/101
f 107/132/101 108/133/101 109/134/101
f 110/135/101 111/136/101 112/137/101
f 113/138/101 114/139/101 115/140/101
f 119/141/105 117/142/103 121/143/103 123/144/105
f 118/141/104 119/142/105 123/143/105 122/144/104
f 116/141/102 118/142/104 122/143/104 120/144/102
f 117/141/103 116/142/102 120/143/102 121/144/103
f 127/141/105 125/142/103 129/143/103 131/144/105
f 126/141/104 127/142/105 131/143/105 130/144/104
f 124/141/102 126/142/104 130/143/104 128/144/102
f 125/141/103 124/142/102 128/143/102 129/144/103
