# Blender 5.0.1
# www.blender.org
mtllib StonePillar.mtl
o Pillar
v -0.150000 -0.444168 0.150000
v -0.150000 -0.444168 -0.150001
v 0.150000 -0.444168 0.150000
v 0.150000 -0.444168 -0.150001
v -0.201337 -0.664168 -0.201338
v -0.201337 -0.664168 0.201337
v -0.201337 -0.502021 -0.201338
v 0.201338 -0.664168 -0.201338
v 0.201338 -0.664168 0.201337
v 0.201338 -0.502021 -0.201338
v 0.201338 -0.502021 0.201337
v -0.201337 -0.502021 0.201337
v -0.122970 -0.259868 0.122969
v -0.107436 -0.004168 0.107434
v -0.122970 -0.259868 -0.122971
v -0.107436 -0.004168 -0.107437
v 0.122970 -0.259868 0.122969
v 0.107436 -0.004168 0.107434
v 0.122970 -0.259868 -0.122971
v 0.107436 -0.004168 -0.107437
v -0.110750 0.460067 0.110750
v -0.110750 0.460067 -0.110750
v 0.110750 0.460067 0.110750
v 0.110750 0.460067 -0.110750
v -0.148654 0.622501 -0.148655
v -0.148654 0.622501 0.148654
v -0.148654 0.502782 -0.148655
v 0.148654 0.622501 -0.148655
v 0.148654 0.622501 0.148654
v 0.148654 0.502782 -0.148655
v 0.148654 0.502782 0.148654
v -0.148654 0.502782 0.148654
v -0.106312 0.289044 0.106311
v -0.106312 0.289044 -0.106313
v 0.106312 0.289044 0.106311
v 0.106312 0.289044 -0.106313
vn -0.5613 0.6081 0.5613
vn -0.5613 0.6081 -0.5613
vn 0.5613 0.6081 0.5613
vn 0.5613 0.6081 -0.5613
vn -0.7071 -0.0000 -0.7071
vn -0.7071 -0.0000 0.7071
vn -0.6564 0.3719 -0.6564
vn 0.7071 -0.0000 -0.7071
vn 0.7071 -0.0000 0.7071
vn 0.6564 0.3719 -0.6564
vn 0.6564 0.3719 0.6564
vn -0.6564 0.3719 0.6564
vn -0.6993 0.1486 0.6993
vn -0.7063 0.0464 0.7063
vn -0.6993 0.1486 -0.6993
vn -0.7063 0.0464 -0.7063
vn 0.6993 0.1486 0.6993
vn 0.7063 0.0464 0.7063
vn 0.6993 0.1486 -0.6993
vn 0.7063 0.0464 -0.7063
vn -0.5904 -0.5503 0.5904
vn -0.5904 -0.5503 -0.5904
vn 0.5904 -0.5503 0.5904
vn 0.5904 -0.5503 -0.5904
vn -0.5774 0.5774 -0.5774
vn -0.5774 0.5774 0.5774
vn -0.6564 -0.3719 -0.6564
vn 0.5774 0.5774 -0.5774
vn 0.5774 0.5774 0.5774
vn 0.6564 -0.3719 -0.6564
vn 0.6564 -0.3719 0.6564
vn -0.6564 -0.3719 0.6564
vn -0.7070 -0.0158 0.7070
vn -0.7070 -0.0158 -0.7070
vn 0.7070 -0.0158 0.7070
vn 0.7070 -0.0158 -0.7070
vt 0.759100 0.481019
vt 0.759104 0.538754
vt 0.674856 0.538755
vt 0.674852 0.481020
vt 0.267871 0.481025
vt 0.267875 0.538760
vt 0.321461 0.538759
vt 0.321457 0.481025
vt 0.352136 0.481024
vt 0.352140 0.538759
vt 0.873228 0.481017
vt 0.873232 0.538752
vt 0.800656 0.538753
vt 0.800652 0.481018
vt 0.428741 0.538758
vt 0.428737 0.481023
vt 0.559980 0.481021
vt 0.559984 0.538756
vt 0.254484 0.480722
vt 0.254484 0.539527
vt 0.188164 0.539527
vt 0.188164 0.480722
s 1
usemtl HouseSets
f 1/1/1 3/2/3 17/3/17 13/4/13
f 8/5/8 5/6/5 7/7/7 10/8/10
f 6/5/6 12/8/12 7/7/7 5/6/5
f 1/9/1 2/10/2 7/7/7 12/8/12
f 3/9/3 11/8/11 10/7/10 4/10/4
f 6/11/6 9/12/9 11/13/11 12/14/12
f 3/9/3 4/10/4 19/15/19 17/16/17
f 14/17/14 16/18/16 15/15/15 13/16/13
f 1/9/1 13/16/13 15/15/15 2/10/2
f 18/17/18 17/16/17 19/15/19 20/18/20
f 13/4/13 17/3/17 18/18/18 14/17/14
f 4/9/4 10/8/10 7/7/7 2/10/2
f 4/9/4 2/10/2 15/15/15 19/16/19
f 12/14/12 11/13/11 3/2/3 1/1/1
f 9/5/9 8/6/8 10/7/10 11/8/11
f 20/17/20 19/16/19 15/15/15 16/18/16
f 21/9/21 33/16/33 35/15/35 23/10/23
f 28/11/28 30/14/30 27/13/27 25/12/25
f 26/11/26 25/12/25 27/13/27 32/14/32
f 21/1/21 32/14/32 27/13/27 22/2/22
f 23/1/23 24/2/24 30/13/30 31/14/31
f 26/5/26 32/8/32 31/7/31 29/6/29
f 23/1/23 35/4/35 36/3/36 24/2/24
f 14/17/14 33/4/33 34/3/34 16/18/16
f 21/1/21 22/2/22 34/3/34 33/4/33
f 18/17/18 20/18/20 36/3/36 35/4/35
f 33/16/33 14/17/14 18/18/18 35/15/35
f 24/1/24 22/2/22 27/13/27 30/14/30
f 24/1/24 36/4/36 34/3/34 22/2/22
f 32/8/32 21/9/21 23/10/23 31/7/31
f 29/11/29 31/14/31 30/13/30 28/12/28
f 20/17/20 16/18/16 34/3/34 36/4/36
f 29/19/29 28/20/28 25/21/25 26/22/26
