# Blender 5.0.1
# www.blender.org
mtllib WoodenFence.mtl
o Graveyard_Table_Top.001
v -1.649487 -0.455597 0.111432
v -1.698097 0.394987 0.069322
v -1.801886 -0.455597 0.039148
v -1.764664 0.397171 0.001412
v -1.582363 -0.455597 -0.014895
v -1.629791 0.417143 -0.002743
v -1.700249 -0.455597 -0.134485
v -1.697622 0.431724 -0.071492
v -1.698910 -0.055109 0.057175
v -1.703457 0.217563 0.069525
v -1.776990 0.232131 -0.000633
v -1.762391 -0.007852 0.005204
v -1.697152 0.217510 -0.046070
v -1.696895 -0.031982 -0.036942
v -1.628397 0.215620 -0.000962
v -1.661878 -0.085819 -0.000566
v -1.788183 -0.315592 0.040487
v -1.691433 -0.295947 -0.080104
v -1.635323 -0.278831 0.000130
v -1.687247 -0.281301 0.057874
v 0.106700 -0.455597 0.111432
v 0.058091 0.394987 0.069322
v -0.045699 -0.455597 0.039148
v -0.008477 0.397171 0.001412
v 0.173825 -0.455597 -0.014895
v 0.126397 0.417143 -0.002743
v 0.055939 -0.455597 -0.134485
v 0.058566 0.431724 -0.071492
v 0.057277 -0.055109 0.057175
v 0.052730 0.217563 0.069525
v -0.020802 0.232131 -0.000633
v -0.006203 -0.007852 0.005205
v 0.059035 0.217510 -0.046070
v 0.059292 -0.031982 -0.036942
v 0.127790 0.215620 -0.000962
v 0.094309 -0.085819 -0.000566
v -0.031995 -0.315592 0.040487
v 0.064754 -0.295947 -0.080104
v 0.120864 -0.278831 0.000130
v 0.068940 -0.281301 0.057874
v 1.862888 -0.455597 0.111432
v 1.814278 0.394987 0.069322
v 1.710489 -0.455597 0.039148
v 1.747711 0.397171 0.001412
v 1.930013 -0.455597 -0.014895
v 1.882584 0.417143 -0.002743
v 1.812126 -0.455597 -0.134485
v 1.814753 0.431724 -0.071492
v 1.813464 -0.055109 0.057175
v 1.808918 0.217563 0.069525
v 1.735385 0.232131 -0.000633
v 1.749984 -0.007852 0.005204
v 1.815222 0.217510 -0.046070
v 1.815480 -0.031982 -0.036942
v 1.883978 0.215620 -0.000962
v 1.850497 -0.085819 -0.000566
v 1.724192 -0.315592 0.040487
v 1.820942 -0.295947 -0.080104
v 1.877052 -0.278831 0.000130
v 1.825128 -0.281301 0.057874
v 1.791145 0.146942 0.051178
v -1.721277 0.088752 0.031883
v 1.800991 0.057615 0.016793
v -1.742070 0.021324 -0.018577
v 1.791302 0.182222 -0.015889
v -1.754542 0.169842 -0.014085
v 1.786445 0.107234 -0.057732
v -1.732086 0.089063 -0.065527
v -0.464700 0.093921 0.032547
v -1.418292 0.079996 0.025083
v -1.444909 0.033526 -0.020740
v -0.445033 0.037195 -0.006700
v -1.428802 0.083735 -0.037006
v -0.433519 0.090298 -0.036871
v -1.425749 0.140731 -0.019604
v -0.452729 0.120112 -0.013709
v 0.949284 0.056710 0.007499
v 0.971931 0.098574 -0.062533
v 0.934851 0.141700 -0.017465
v 0.923783 0.113363 0.033022
vn -0.6861 -0.0037 0.7275
vn -0.6996 0.0323 0.7138
vn -0.6883 0.0020 0.7254
vn -0.5804 -0.0347 -0.8136
vn -0.6248 -0.0286 -0.7803
vn -0.5716 -0.0358 -0.8198
vn 0.6190 -0.0487 -0.7838
vn 0.6362 -0.0475 -0.7701
vn 0.6185 -0.0488 -0.7843
vn 0.7256 -0.0272 0.6876
vn 0.7053 -0.0037 0.7089
vn 0.7255 -0.0271 0.6877
vn 0.8078 0.1797 0.5614
vn 0.7811 0.0281 0.6238
vn 0.7664 -0.0065 0.6423
vn 0.8076 0.1747 0.5632
vn 0.7554 0.1841 -0.6288
vn 0.6597 -0.0077 -0.7515
vn 0.7574 0.0712 -0.6491
vn 0.7661 0.1675 -0.6205
vn -0.7790 0.1091 -0.6175
vn -0.6060 -0.0095 -0.7954
vn -0.6394 0.0046 -0.7688
vn -0.7726 0.1019 -0.6267
vn -0.3666 0.0973 0.9253
vn -0.4866 0.0372 0.8728
vn -0.5870 0.0003 0.8096
vn -0.3601 0.1071 0.9267
vn -0.3463 0.1279 0.9294
vn -0.8230 0.1630 -0.5441
vn 0.7243 0.2292 -0.6503
vn 0.8077 0.2665 0.5260
vn -0.1343 0.9590 0.2497
vn -0.5716 -0.0358 -0.8197
vn 0.0041 -0.6411 0.7675
vn 0.0151 -0.6492 0.7605
vn 0.0085 -0.6443 0.7647
vn 0.0298 -0.4528 -0.8911
vn 0.0440 -0.4795 -0.8765
vn 0.0232 -0.4402 -0.8976
vn 0.0324 0.4392 -0.8978
vn 0.0570 0.4527 -0.8898
vn 0.0315 0.4387 -0.8981
vn 0.0258 0.6320 0.7745
vn 0.0491 0.5479 0.8351
vn 0.0219 0.6454 0.7635
vn -0.0298 0.8770 0.4795
vn -0.0081 0.8143 0.5804
vn -0.0066 0.7931 0.6091
vn -0.0259 0.8760 0.4816
vn -0.0145 0.6195 -0.7849
vn -0.0078 0.5946 -0.8040
vn -0.0015 0.5184 -0.8551
vn -0.0148 0.6485 -0.7611
vn 0.0065 -0.7794 -0.6265
vn 0.0069 -0.5607 -0.8280
vn 0.0063 -0.5999 -0.8000
vn 0.0074 -0.8002 -0.5997
vn -0.0013 -0.4521 0.8920
vn -0.0006 -0.5795 0.8149
vn 0.0002 -0.5558 0.8313
vn -0.0035 -0.4253 0.9050
vn -0.0071 -0.3811 0.9245
vn 0.0094 -0.8452 -0.5344
vn -0.0143 0.5901 -0.8072
vn -0.0433 0.8804 0.4723
vt 0.246105 0.270922
vt 0.246105 -0.004434
vt 0.312304 -0.004434
vt 0.312304 0.270922
vt 0.383828 -0.004434
vt 0.383828 0.270922
vt 0.115925 0.270922
vt 0.115925 -0.004434
vt 0.184088 -0.004434
vt 0.184088 0.270922
vt 0.184088 0.725044
vt 0.184088 0.562350
vt 0.246105 0.562350
vt 0.246106 0.725044
vt 0.115925 0.725044
vt 0.115925 0.562350
vt 0.312304 0.725044
vt 0.312304 0.562350
vt 0.383828 0.562350
vt 0.383828 0.725044
vt 0.246106 0.805343
vt 0.312304 0.805343
vt 0.383828 0.805343
vt 0.115925 0.805343
vt 0.184088 0.805343
vt 0.246106 0.270922
vt 0.246105 -0.004434
vt 0.383828 0.025254
vt 0.383828 0.270922
vt 0.115925 0.270922
vt 0.115925 0.025254
vt 0.184088 0.270922
vt 0.184088 0.725044
vt 0.164738 0.547242
vt 0.246105 0.531271
vt 0.246105 0.725043
vt 0.108587 0.560511
vt 0.312304 0.725044
vt 0.312304 0.578498
vt 0.367071 0.563837
vt 0.383828 0.725044
vt 0.383828 0.805342
vt 0.184089 0.805344
s 1
usemtl Wood_Basic
f 10/1/1 2/2/2 4/3/2 11/4/3
f 11/4/4 4/3/5 8/5/5 13/6/6
f 13/7/7 8/8/8 6/9/8 15/10/9
f 15/10/10 6/9/11 2/2/11 10/1/12
f 19/11/13 16/12/14 9/13/15 20/14/16
f 16/12/14 15/10/10 10/1/12 9/13/15
f 18/15/17 14/16/18 16/12/19 19/11/20
f 14/16/18 13/7/7 15/10/9 16/12/19
f 17/17/21 12/18/22 14/19/23 18/20/24
f 12/18/22 11/4/4 13/6/6 14/19/23
f 20/14/25 9/13/26 12/18/27 17/17/28
f 9/13/26 10/1/1 11/4/3 12/18/27
f 1/21/29 20/14/25 17/17/28 3/22/29
f 3/22/30 17/17/21 18/20/24 7/23/30
f 7/24/31 18/15/17 19/11/20 5/25/31
f 5/25/32 19/11/13 20/14/16 1/21/32
f 2/2/33 6/9/33 8/8/33 4/3/33
f 30/1/1 22/2/2 24/3/2 31/4/3
f 31/4/4 24/3/5 28/5/5 33/6/6
f 33/7/7 28/8/8 26/9/8 35/10/9
f 35/10/10 26/9/11 22/2/11 30/1/12
f 39/11/13 36/12/14 29/13/15 40/14/16
f 36/12/14 35/10/10 30/1/12 29/13/15
f 38/15/17 34/16/18 36/12/19 39/11/20
f 34/16/18 33/7/7 35/10/9 36/12/19
f 37/17/21 32/18/22 34/19/23 38/20/24
f 32/18/22 31/4/4 33/6/6 34/19/23
f 40/14/25 29/13/26 32/18/27 37/17/28
f 29/13/26 30/1/1 31/4/3 32/18/27
f 21/21/29 40/14/25 37/17/28 23/22/29
f 23/22/30 37/17/21 38/20/24 27/23/30
f 27/24/31 38/15/17 39/11/20 25/25/31
f 25/25/32 39/11/13 40/14/16 21/21/32
f 22/2/33 26/9/33 28/8/33 24/3/33
f 50/1/1 42/2/2 44/3/2 51/4/3
f 51/4/4 44/3/5 48/5/5 53/6/34
f 53/7/7 48/8/8 46/9/8 55/10/9
f 55/10/10 46/9/11 42/2/11 50/1/12
f 59/11/13 56/12/14 49/13/15 60/14/16
f 56/12/14 55/10/10 50/1/12 49/13/15
f 58/15/17 54/16/18 56/12/19 59/11/20
f 54/16/18 53/7/7 55/10/9 56/12/19
f 57/17/21 52/18/22 54/19/23 58/20/24
f 52/18/22 51/4/4 53/6/34 54/19/23
f 60/14/25 49/13/26 52/18/27 57/17/28
f 49/13/26 50/1/1 51/4/3 52/18/27
f 41/21/29 60/14/25 57/17/28 43/22/29
f 43/22/30 57/17/21 58/20/24 47/23/30
f 47/24/31 58/15/17 59/11/20 45/25/31
f 45/25/32 59/11/13 60/14/16 41/21/32
f 42/2/33 46/9/33 48/8/33 44/3/33
f 70/26/35 62/27/36 64/3/36 71/4/37
f 71/4/38 64/3/39 68/28/39 73/29/40
f 73/30/41 68/31/42 66/9/42 75/32/43
f 75/32/44 66/9/45 62/27/45 70/26/46
f 79/33/47 76/34/48 69/35/49 80/36/50
f 76/34/48 75/32/44 70/26/46 69/35/49
f 78/15/51 74/37/52 76/34/53 79/33/54
f 74/37/52 73/30/41 75/32/43 76/34/53
f 77/38/55 72/39/56 74/40/57 78/41/58
f 72/39/56 71/4/38 73/29/40 74/40/57
f 80/36/59 69/35/60 72/39/61 77/38/62
f 69/35/60 70/26/35 71/4/37 72/39/61
f 61/21/63 80/36/59 77/38/62 63/22/63
f 63/22/64 77/38/55 78/41/58 67/42/64
f 67/24/65 78/15/51 79/33/54 65/43/65
f 65/43/66 79/33/47 80/36/50 61/21/66
